<svg
  version="1.1"
  xmlns="http://www.w3.org/2000/svg"
  xmlns:xlink="http://www.w3.org/1999/xlink"
  class="thumbnail-icon"
  viewBox="0.0001373291015625 4.76837158203125e-7 199.9997100830078 200"
>
  <g
    data-paper-data='{"fillRule":"nonzero","isIcon":"true","selectedEffects":{"container":"circle_simple_outline1","transformation":"","pattern":""},"iconType":"initial","rawInitialId":322,"initialText":"SC","blockLetter":"O","blockLetterId":0,"relativeBoundsIconToContainer":{"top":0.016223928718922153,"left":0.0003428669253289782},"widthRatioIconToContainer":0.830947723292185,"heightRatioIconToContainer":0.40300338678736125,"bounds":{"x":116.64802940688364,"y":188.99207842668685,"width":92.0157143244395,"height":92.01584314662634},"iconStyle":"icon-in-text"}'
  >
    <path
      d="M104.71643,73.0337c-0.6046,-0.98247 -1.66265,-1.47371 -3.17415,-1.47371c-1.5115,0 -2.92853,0.18894 -4.25109,0.56681c-1.32256,0.37787 -2.89074,0.9069 -4.70454,1.58707c-2.94742,1.2092 -5.32803,2.34282 -7.14183,3.40087c-6.80174,3.6276 -13.15004,7.87869 -19.04489,12.75327c-5.89485,4.87458 -8.99342,8.52107 -9.29572,10.93947c-0.15115,1.88937 0.86911,3.43866 3.06079,4.64786c1.88937,1.13362 4.08105,2.21057 6.57502,3.23083c2.49397,1.02026 4.30777,1.7949 5.4414,2.32393c6.046,3.023 9.06899,7.02847 9.06899,12.01642c0,2.19167 -0.64239,4.30777 -1.92716,6.3483c-2.04052,3.17415 -5.1202,5.80038 -9.23904,7.87869c-4.11883,2.07831 -8.52107,3.53313 -13.20672,4.36445c-4.8368,0.83132 -8.84227,1.24699 -12.01642,1.24699c-5.7437,0 -11.48739,-1.22809 -17.23109,-3.68428c-5.7437,-2.45619 -9.29572,-6.29161 -10.65607,-11.50629c2.79627,2.49397 6.6506,4.26998 11.56297,5.32803c4.91237,1.05805 9.59802,1.58707 14.05694,1.58707c6.6506,-0.07557 11.58186,-0.6046 14.7938,-1.58707c3.21194,-0.98247 6.00821,-2.13499 8.38882,-3.45755c2.38061,-1.32256 4.57228,-2.87185 6.57502,-4.64786c2.00274,-1.77601 3.0041,-3.74096 3.0041,-5.89485c0,-2.15389 -1.43592,-4.09994 -4.30777,-5.83816c-0.22672,-0.15115 -2.51287,-1.09584 -6.85843,-2.83406c-4.34556,-1.73822 -7.67086,-3.66538 -9.97589,-5.78148c-2.30504,-2.1161 -3.45755,-4.5345 -3.45755,-7.25519c0,-5.1391 3.17415,-10.37266 9.52244,-15.70069c6.3483,-5.32803 13.2823,-9.46576 20.802,-12.41318c7.51971,-2.94742 13.92468,-4.42113 19.21493,-4.42113c3.70317,0 6.57502,0.66128 8.61554,1.98384c2.04052,1.32256 3.06079,3.15525 3.06079,5.49808c0,0.3023 0,0.64239 0,1.02026c-0.22672,2.34282 -4.34556,7.21741 -12.3565,14.62375c-2.94742,2.7207 -5.53586,5.76259 -7.76533,9.12567c-2.22946,3.36308 -3.34419,6.3294 -3.34419,8.89895c0,0.22672 0,0.45345 0,0.68017c-2.34282,-1.8138 -3.51423,-4.2322 -3.51423,-7.25519c0,-2.7207 1.17141,-6.046 3.51423,-9.97589c3.40087,-5.7437 8.80448,-11.18509 16.21083,-16.32419zM123.98804,101.48767l2.83406,0.45345c3.6276,0 9.01231,-1.60597 16.15414,-4.8179c7.14183,-3.21194 13.69796,-7.19851 19.66838,-11.95973c5.97042,-4.76122 8.95563,-8.95563 8.95563,-12.58323c0,-2.34282 -1.15252,-3.96768 -3.45755,-4.87458c-2.30504,-0.9069 -4.8179,-1.36035 -7.5386,-1.36035c-8.84227,0 -18.36471,2.53176 -28.56733,7.59528c-10.20262,5.06352 -19.0071,11.03394 -26.41344,17.91126c-9.97589,9.29572 -14.96384,18.13799 -14.96384,26.52681c0,3.6276 0.9069,6.80174 2.7207,9.52244c1.8138,2.7207 4.2322,4.8368 7.25519,6.3483c5.66812,2.79627 12.01642,4.19441 19.04489,4.19441c3.17415,0 7.06626,-0.34009 11.67633,-1.02026c8.01094,-1.43592 14.86937,-3.3253 20.57528,-5.66812c5.70591,-2.34282 11.43071,-5.85706 17.17441,-10.5427c0.3023,-0.15115 0.49124,-0.22672 0.56681,-0.22672c0.37787,0 0.56681,0.17004 0.56681,0.51013c0,0.34009 -0.15115,0.73686 -0.45345,1.19031c-5.66812,6.12157 -13.5657,11.12841 -23.69274,15.02052c-10.12704,3.89211 -19.6117,5.83816 -28.45397,5.83816c-11.33624,0 -19.83842,-3.3253 -25.50654,-9.97589c-3.09857,-3.70317 -4.64786,-8.16209 -4.64786,-13.37677c0,-10.12704 5.47918,-20.14072 16.43755,-30.04104c8.23767,-7.40634 18.13799,-13.79243 29.70095,-19.15825c11.56297,-5.36582 22.3324,-8.04873 32.30829,-8.04873c6.12157,0 10.88279,1.47371 14.28366,4.42113c1.96495,1.8138 2.94742,4.04326 2.94742,6.68838c0,3.70317 -1.87048,7.42524 -5.61144,11.1662c-3.74096,3.74096 -8.23767,6.934 -13.49013,9.57912c-5.25246,2.64512 -10.50492,4.85569 -15.75738,6.6317c-5.25246,1.77601 -8.91784,2.75849 -10.99615,2.94742c-2.07831,0.18894 -3.66538,0.28341 -4.76122,0.28341c-1.09584,0 -2.21057,-0.03779 -3.34419,-0.11336c-3.9299,-0.37787 -5.89485,-1.2092 -5.89485,-2.49397c0,-0.37787 0.22672,-0.56681 0.68017,-0.56681zM29.28941,29.28941c9.22654,-9.22654 19.82176,-16.36996 31.78567,-21.43027c12.38735,-5.23943 25.36227,-7.85914 38.92477,-7.85914c13.56274,0 26.53779,2.61971 38.92514,7.85914c11.96411,5.06031 22.55928,12.20373 31.78553,21.43027c9.22649,9.22654 16.36989,19.82177 21.43019,31.78571c5.23943,12.38708 7.85914,25.36204 7.85914,38.92488c0,13.5625 -2.61971,26.53742 -7.85914,38.92477c-5.06031,11.96411 -12.20371,22.55941 -21.43019,31.78589c-9.22649,9.22649 -19.82166,16.36989 -31.78553,21.43019c-12.3871,5.23943 -25.36215,7.85914 -38.92514,7.85914c-13.5625,0 -26.53742,-2.61971 -38.92477,-7.85914c-11.96389,-5.06031 -22.55911,-12.20371 -31.78567,-21.43019c-9.22651,-9.22649 -16.36993,-19.82178 -21.43025,-31.78589c-5.23935,-12.3871 -7.85902,-25.36203 -7.85902,-38.92477c0,-13.56269 2.61967,-26.53765 7.85902,-38.92488c5.06034,-11.96399 12.20376,-22.55922 21.43025,-31.78571zM31.13186,168.86803c8.98696,8.98701 19.30636,15.94469 30.95819,20.87304c12.06283,5.1021 24.69943,7.65314 37.9098,7.65314c13.21037,0 25.84709,-2.55105 37.91017,-7.65314c11.65181,-4.92835 21.97122,-11.88603 30.95823,-20.87304c8.98677,-8.98701 15.94432,-19.30642 20.87268,-30.95823c5.10234,-12.06259 7.65351,-24.69919 7.65351,-37.9098c0,-13.21034 -2.55117,-25.84696 -7.65351,-37.90984c-4.92811,-11.65196 -11.88567,-21.97139 -20.87268,-30.9583c-8.98701,-8.98694 -19.30642,-15.94458 -30.95823,-20.87293c-12.06283,-5.1021 -24.69955,-7.65314 -37.91017,-7.65314c-13.21037,0 -25.84697,2.55105 -37.9098,7.65314c-11.65186,4.92835 -21.97126,11.886 -30.95819,20.87293c-8.98694,8.98694 -15.94458,19.30637 -20.87293,30.9583c-5.10212,12.06278 -7.65319,24.69939 -7.65319,37.90984c0,13.21037 2.55106,25.84697 7.65319,37.9098c4.9284,11.65205 11.88604,21.97146 20.87293,30.95823z"
      fill-rule="nonzero"
    ></path>
  </g>
</svg>
